<svg width="71" height="92" viewBox="0 0 71 92" fill="none" xmlns="http://www.w3.org/2000/svg">
<path d="M0.948806 34.001L21.5488 16.901C32.8488 7.50098 42.6488 -0.0990244 43.2488 0.000975647C43.8488 0.100976 50.3488 5.60098 57.5488 12.201C64.7488 18.801 70.6488 24.801 70.6488 25.401C70.6488 26.101 69.4488 27.801 67.8488 29.101C66.3488 30.401 62.2488 33.901 52.1488 42.101L61.5488 50.601C68.1488 56.701 70.7488 59.801 70.5488 61.101C70.3488 62.201 62.1488 69.501 52.3488 77.401C42.6488 85.201 34.4488 91.701 34.1488 91.701C33.8488 91.701 33.6488 89.301 33.5488 81.201L44.8488 72.101C51.0488 67.101 56.7488 62.401 57.3488 61.601C58.4488 60.501 57.8488 59.501 54.4488 56.201C52.1488 54.001 48.9488 51.101 44.5488 47.201L40.3488 50.601C38.0488 52.501 35.5488 54.501 34.8488 55.101C33.8488 56.001 33.5488 55.001 33.6488 44.701L58.1488 25.501L52.1488 19.601C48.8488 16.401 45.2488 13.201 44.1488 12.601C42.3488 11.601 39.6488 13.501 21.3488 28.101C9.94881 37.201 0.448806 44.701 0.148806 44.701C-0.151194 44.701 -0.0511944 42.301 0.948806 34.001Z" fill="#FACC15"/>
</svg>
